<?xml version="1.0" encoding="UTF-8"?>
<svg width="864px" height="88px" viewBox="0 0 864 88" version="1.1" xmlns="http://www.w3.org/2000/svg" xmlns:xlink="http://www.w3.org/1999/xlink">
    <title>#klimasemester</title>
    <g id="Page-1" stroke="none" stroke-width="1" fill="none" fill-rule="evenodd">
        <g id="Desktop-HD" transform="translate(-288.000000, -467.000000)" fill="#EB3A00" fill-rule="nonzero">
            <path d="M307.931074,553 L310.409074,530.816 L319.967074,530.816 L317.489074,553 L334.127074,553 L336.605074,530.816 L345.691074,530.816 L345.691074,517.128 L338.021074,517.128 L339.201074,506.39 L345.691074,506.39 L345.691074,492.938 L340.735074,492.938 L342.859074,473.35 L326.221074,473.35 L324.097074,492.938 L314.539074,492.938 L316.663074,473.35 L300.025074,473.35 L297.901074,492.938 L288.461074,492.938 L288.461074,506.39 L296.367074,506.39 L295.187074,517.128 L288.461074,517.128 L288.461074,530.816 L293.771074,530.816 L291.293074,553 L307.931074,553 Z M321.383074,517.128 L311.825074,517.128 L313.005074,506.39 L322.563074,506.39 L321.383074,517.128 Z M379.057206,553 L379.057206,525.978 L379.883206,525.978 L387.435206,553 L414.457206,553 L401.241206,518.662 L413.631206,492.938 L387.199206,492.938 L379.883206,516.184 L379.057206,516.184 L379.057206,469.338 L355.457206,469.338 L355.457206,553 L379.057206,553 Z M434.843338,554.298 C442.041338,554.298 446.289338,553.472 450.065338,552.056 L449.239338,538.604 L447.351338,538.604 C445.109338,538.604 444.165338,538.25 444.165338,532.35 L444.165338,469.338 L420.565338,469.338 L420.565338,541.79 C420.565338,551.348 425.875338,554.298 434.843338,554.298 Z M469.271471,490.696 C479.891471,490.696 482.959471,487.392 482.959471,479.132 C482.959471,470.518 480.127471,467.568 469.271471,467.568 C458.651471,467.568 455.583471,470.872 455.583471,479.132 C455.583471,487.746 458.415471,490.696 469.271471,490.696 Z M481.071471,553 L481.071471,492.938 L457.471471,492.938 L457.471471,553 L481.071471,553 Z M516.561603,553 L516.561603,511.818 C518.921603,510.638 520.927603,509.93 522.461603,509.93 C525.028434,509.93 525.864818,510.160726 525.883289,522.142946 L525.883603,553 L549.365603,553 L549.365259,517.236367 C549.363195,514.910082 549.348746,512.930571 549.247603,511.818 C551.725603,510.638 553.731603,509.93 555.265603,509.93 C558.065783,509.93 558.904788,510.160726 558.923288,522.142946 L558.923603,522.556 C558.923603,527.512 558.451603,539.076 558.451603,553 L582.169603,553 C582.169603,538.014 582.641603,525.388 582.641603,519.016 C582.641603,499.782 577.331603,491.168 563.407603,491.168 C556.681603,491.168 551.017603,493.646 545.707603,498.602 C542.993603,493.646 537.683603,491.168 530.603603,491.168 C523.877603,491.168 518.331603,493.764 513.729603,498.248 L512.195603,492.938 L492.961603,492.938 L492.961603,553 L516.561603,553 Z M611.287735,554.77 C618.721735,554.77 624.149735,552.174 628.751735,547.926 L630.167735,553 L648.221735,553 L648.221735,510.756 C648.221735,498.248 638.663735,491.286 622.615735,491.286 C612.939735,491.286 603.617735,493.528 594.413735,497.54 L597.127735,511.464 C603.735735,509.222 611.051735,507.806 617.069735,507.806 C622.261735,507.806 624.857735,509.458 624.857735,512.644 L624.857735,514.65 L622.733735,514.65 C600.785735,514.65 590.873735,521.966 590.873735,535.182 C590.873735,547.454 599.133735,554.77 611.287735,554.77 Z M618.485735,538.486 C615.535735,538.486 613.647735,536.716 613.647735,533.53 C613.647735,529.872 616.479735,528.338 622.025735,528.338 L624.857735,528.338 L624.857735,535.772 C623.323735,537.188 620.727735,538.486 618.485735,538.486 Z M677.929868,554.652 C695.983868,554.652 706.013868,545.566 706.013868,533.648 C706.013868,512.408 681.587868,515.948 681.587868,509.576 C681.587868,508.16 683.121868,506.862 687.369868,506.862 C690.673868,506.862 693.741868,507.216 700.349868,508.514 L702.237868,497.068 C694.331868,492.702 688.313868,491.286 682.059868,491.286 C667.073868,491.286 656.925868,498.956 656.925868,511.228 C656.925868,532.468 680.997868,528.928 680.997868,535.3 C680.997868,536.952 679.581868,538.486 673.445868,538.486 C670.141868,538.486 665.775868,538.25 658.105868,537.07 L656.689868,548.516 C664.123868,552.646 670.613868,554.652 677.929868,554.652 Z M740.914,554.77 C750.826,554.77 760.974,551.82 769.942,547.1 L767.11,534.002 C758.968,536.008 750.354,537.07 745.162,537.07 C739.498,537.07 736.076,534.238 736.076,528.928 L736.076,528.574 L770.414,528.574 C772.42,499.074 760.148,491.168 742.92,491.168 C724.158,491.168 712.122,502.142 712.122,524.326 C712.122,547.218 723.568,554.77 740.914,554.77 Z M747.876,514.65 L736.194,514.65 C736.548,508.75 738.908,506.39 742.33,506.39 C745.752,506.39 747.876,507.924 747.876,514.532 L747.876,514.65 Z M804.134132,553 L804.134132,511.818 C806.494132,510.638 808.500132,509.93 810.034132,509.93 C812.630132,509.93 813.456132,510.166 813.456132,522.556 L813.456132,553 L836.938132,553 L836.93803,517.627203 C836.937062,515.132703 836.926894,512.992381 836.820132,511.818 C839.298132,510.638 841.304132,509.93 842.838132,509.93 C845.670132,509.93 846.496132,510.166 846.496132,522.556 C846.496132,527.512 846.024132,539.076 846.024132,553 L869.742132,553 C869.742132,538.014 870.214132,525.388 870.214132,519.016 C870.214132,499.782 864.904132,491.168 850.980132,491.168 C844.254132,491.168 838.590132,493.646 833.280132,498.602 C830.566132,493.646 825.256132,491.168 818.176132,491.168 C811.450132,491.168 805.904132,493.764 801.302132,498.248 L799.768132,492.938 L780.534132,492.938 L780.534132,553 L804.134132,553 Z M908.064265,554.77 C917.976265,554.77 928.124265,551.82 937.092265,547.1 L934.260265,534.002 C926.118265,536.008 917.504265,537.07 912.312265,537.07 C906.648265,537.07 903.226265,534.238 903.226265,528.928 L903.226265,528.574 L937.564265,528.574 C939.570265,499.074 927.298265,491.168 910.070265,491.168 C891.308265,491.168 879.272265,502.142 879.272265,524.326 C879.272265,547.218 890.718265,554.77 908.064265,554.77 Z M915.026265,514.65 L903.344265,514.65 C903.698265,508.75 906.058265,506.39 909.480265,506.39 C912.902265,506.39 915.026265,507.924 915.026265,514.532 L915.026265,514.65 Z M965.620397,554.652 C983.674397,554.652 993.704397,545.566 993.704397,533.648 C993.704397,512.408 969.278397,515.948 969.278397,509.576 C969.278397,508.16 970.812397,506.862 975.060397,506.862 C978.364397,506.862 981.432397,507.216 988.040397,508.514 L989.928397,497.068 C982.022397,492.702 976.004397,491.286 969.750397,491.286 C954.764397,491.286 944.616397,498.956 944.616397,511.228 C944.616397,532.468 968.688397,528.928 968.688397,535.3 C968.688397,536.952 967.272397,538.486 961.136397,538.486 C957.832397,538.486 953.466397,538.25 945.796397,537.07 L944.380397,548.516 C951.814397,552.646 958.304397,554.652 965.620397,554.652 Z M1019.63653,554.652 C1024.94653,554.652 1030.13853,553.59 1036.98253,550.05 L1035.56653,536.716 C1032.61653,537.188 1030.61053,537.306 1029.07653,537.306 C1027.66053,537.306 1026.12653,536.598 1026.12653,533.648 L1026.12653,509.104 L1035.33053,509.104 L1035.33053,492.938 L1026.12653,492.938 L1026.12653,475.002 L1008.78053,475.002 C1007.12853,482.082 1005.59453,487.392 1003.58853,492.938 L997.688529,492.938 L997.688529,509.104 L1002.52653,509.104 L1002.52653,539.312 C1002.52653,550.64 1007.36453,554.652 1019.63653,554.652 Z M1071.05666,554.77 C1080.96866,554.77 1091.11666,551.82 1100.08466,547.1 L1097.25266,534.002 C1089.11066,536.008 1080.49666,537.07 1075.30466,537.07 C1069.64066,537.07 1066.21866,534.238 1066.21866,528.928 L1066.21866,528.574 L1100.55666,528.574 C1102.56266,499.074 1090.29066,491.168 1073.06266,491.168 C1054.30066,491.168 1042.26466,502.142 1042.26466,524.326 C1042.26466,547.218 1053.71066,554.77 1071.05666,554.77 Z M1078.01866,514.65 L1066.33666,514.65 C1066.69066,508.75 1069.05066,506.39 1072.47266,506.39 C1075.89466,506.39 1078.01866,507.924 1078.01866,514.532 L1078.01866,514.65 Z M1134.27679,553 L1134.27679,518.544 C1138.28879,513.234 1140.17679,511.818 1142.89079,511.818 C1144.18879,511.818 1146.07679,512.054 1149.14479,512.762 L1151.97679,492.82 C1149.61679,491.758 1147.02079,491.286 1144.89679,491.286 C1140.29479,491.286 1136.63679,493.292 1131.68079,500.49 L1129.91079,492.938 L1110.67679,492.938 L1110.67679,553 L1134.27679,553 Z" id="#klimasemester"></path>
        </g>
    </g>
</svg>